<svg width="180" height="81" viewBox="0 0 180 81" fill="none" xmlns="http://www.w3.org/2000/svg">
<path fill-rule="evenodd" clip-rule="evenodd" d="M53.7504 25.2077L51.6719 32.3357H62.363L36.0303 66.9845L42.9602 42.7302H36.426L42.762 14.021H76.2228L67.8083 25.2077H53.7504Z" fill="#2CB5B4"/>
<path fill-rule="evenodd" clip-rule="evenodd" d="M81.9336 30.1994C83.1514 30.1994 84.0282 30.3943 84.759 30.7352L84.3449 33.3901C83.9308 33.1953 83.3463 33.0491 82.6156 33.0491C81.3734 33.0491 80.3017 33.4875 80.0825 34.9002L79.912 35.8988H83.4681L83.0296 38.7486H79.4492L78.0609 47.59H74.6753L76.088 38.7486H74.0664L74.5292 35.8988H76.5264L76.7456 34.5592C77.2814 31.125 79.7415 30.1994 81.9336 30.1994Z" fill="#2CB5B4"/>
<path fill-rule="evenodd" clip-rule="evenodd" d="M96.6692 35.8988L94.818 47.59H91.8466L92.0901 46.0799C91.0915 47.2246 89.6789 47.931 88.047 47.931C85.0267 47.931 83.4923 45.7389 83.9307 43.011L85.0511 35.8988H88.4123L87.3406 42.7917C87.0727 44.3749 87.8521 45.0082 89.0699 45.0082C90.3852 45.0082 91.4812 44.2288 92.1145 43.4494L93.3079 35.8988H96.6692Z" fill="#2CB5B4"/>
<path fill-rule="evenodd" clip-rule="evenodd" d="M102.612 53.2894C100.566 53.2894 98.8369 52.8023 97.5947 52.096L98.0575 49.2462C99.2267 50.05 100.664 50.4397 102.296 50.4397C104.39 50.4397 106.241 49.5872 106.607 47.3221L106.777 46.2504C106.144 47.0298 104.877 47.931 102.807 47.931C99.1048 47.931 97.4243 44.8377 97.9601 41.5252C98.4472 38.4563 100.883 35.5578 104.463 35.5578C106.436 35.5578 107.727 36.4103 108.458 37.75L108.774 35.8988H111.795L109.992 47.3708C109.31 51.6575 106.046 53.2894 102.612 53.2894ZM103.757 45.0813C105.34 45.0813 106.607 44.1314 107.264 43.084L107.727 40.2343C107.435 39.2357 106.485 38.4075 105.121 38.4075C103.099 38.4075 101.638 39.8446 101.321 41.8419C101.053 43.5468 101.906 45.0813 103.757 45.0813Z" fill="#2CB5B4"/>
<path fill-rule="evenodd" clip-rule="evenodd" d="M112.842 47.59L114.693 35.8988H118.079L116.228 47.59H112.842ZM116.837 33.9747C115.716 33.9747 114.815 33.2683 115.034 31.8313C115.229 30.6134 116.155 30.102 117.153 30.102C118.298 30.102 119.175 30.8327 118.956 32.2454C118.761 33.4632 117.835 33.9747 116.837 33.9747Z" fill="#2CB5B4"/>
<path fill-rule="evenodd" clip-rule="evenodd" d="M124.289 47.931C120.587 47.931 118.907 44.8377 119.442 41.5252C119.93 38.4563 122.317 35.5578 125.946 35.5578C128.089 35.5578 129.356 36.7026 129.965 37.8474L130.281 35.8988H133.253L131.402 47.59H128.43L128.698 45.8607C127.797 47.0054 126.36 47.931 124.289 47.931ZM125.239 45.0813C126.823 45.0813 128.089 44.0826 128.747 43.0353L129.21 40.3074C128.942 39.2601 127.992 38.4075 126.603 38.4075C124.582 38.4075 123.12 39.8933 122.804 41.8175C122.536 43.5468 123.388 45.0813 125.239 45.0813Z" fill="#2CB5B4"/>
<path fill-rule="evenodd" clip-rule="evenodd" d="M140.925 31.6852L140.268 35.8988H143.97L143.507 38.7486H139.805L139.05 43.425C138.855 44.6672 139.342 45.0813 140.584 45.0813C141.412 45.0813 142.143 44.9351 142.849 44.6429L142.411 47.4195C141.68 47.7362 140.535 47.931 139.366 47.931C137.15 47.931 135.177 46.7862 135.64 43.8878L136.444 38.7486H134.471L134.933 35.8988H136.882L137.442 32.5133L140.925 31.6852Z" fill="#2CB5B4"/>
</svg>
