<svg width="458" height="313" viewBox="0 0 458 313" fill="none" xmlns="http://www.w3.org/2000/svg">
<g clip-path="url(#clip0_16_534)">
<rect x="1" y="1" width="456" height="311" fill="url(#paint0_linear_16_534)"/>
<path d="M0.5 2.00001C0.5 1.17158 1.17157 0.5 2 0.5V-0.5C0.619286 -0.5 -0.5 0.619297 -0.5 2.00001H0.5ZM0.5 311V2.00001H-0.5V311H0.5ZM2 312.5C1.17158 312.5 0.5 311.828 0.5 311H-0.5C-0.5 312.381 0.619287 313.5 2 313.5V312.5ZM456 312.5H2V313.5H456V312.5ZM457.5 311C457.5 311.828 456.828 312.5 456 312.5V313.5C457.381 313.5 458.5 312.381 458.5 311H457.5ZM457.5 2V311H458.5V2H457.5ZM456 0.5C456.828 0.5 457.5 1.17158 457.5 2H458.5C458.5 0.619285 457.381 -0.5 456 -0.5V0.5ZM2 0.5H456V-0.5H2V0.5ZM2.99999 0.5C1.61928 0.5 0.5 1.61929 0.5 3H1.5C1.5 2.17157 2.17157 1.5 2.99999 1.5V0.5ZM455 0.5H2.99999V1.5H455V0.5ZM457.5 3C457.5 1.61928 456.381 0.5 455 0.5V1.5C455.828 1.5 456.5 2.17157 456.5 3H457.5ZM457.5 310V3H456.5V310H457.5ZM455 312.5C456.381 312.5 457.5 311.381 457.5 310H456.5C456.5 310.828 455.828 311.5 455 311.5V312.5ZM3 312.5H455V311.5H3V312.5ZM0.5 310C0.5 311.381 1.61929 312.5 3 312.5V311.5C2.17157 311.5 1.5 310.828 1.5 310H0.5ZM0.5 3V310H1.5V3H0.5Z" fill="#3D5D79"/>
<rect width="458" height="313" stroke="#2CB5B4" stroke-width="6"/>
</g>
<defs>
<linearGradient id="paint0_linear_16_534" x1="436.5" y1="1.00003" x2="-32.5" y2="335" gradientUnits="userSpaceOnUse">
<stop stop-color="white"/>
<stop offset="1" stop-color="#BCF3F3" stop-opacity="0"/>
</linearGradient>
<clipPath id="clip0_16_534">
<rect width="458" height="313" fill="white"/>
</clipPath>
</defs>
</svg>
